<svg width="218" height="268" viewBox="0 0 218 268" fill="none" xmlns="http://www.w3.org/2000/svg">
<path fill-rule="evenodd" clip-rule="evenodd" d="M16.7475 72H35.2475L50.2475 52.5L39.2475 33.5L61.2475 15L79.2475 29.5L100.748 22.5L106.248 0H133.747L140.747 24L160.747 33L179.747 21L200.247 42.5L187.728 62C200.228 74.5 220.5 103 217.228 160C213.956 217 165.747 268 107.748 268C49.7482 268 14.2488 215.5 5.24754 183C-3.75375 150.5 -1.9517 111.325 16.7475 72ZM25.7468 154C25.7468 210 70.2469 244 111.247 244C152.247 244 195.747 209 195.747 150.5C195.747 92 155.247 41.5 111.247 47C67.2462 52.5 25.7468 98 25.7468 154Z" fill="#142431"/>
<path fill-rule="evenodd" clip-rule="evenodd" d="M91 72.5H132L180 198H147L140 178H86L78 198H45L91 72.5ZM128 148H96L112 104L128 148Z" fill="#142431"/>
<path fill-rule="evenodd" clip-rule="evenodd" d="M16.7475 72H35.2475L50.2475 52.5L39.2475 33.5L61.2475 15L79.2475 29.5L100.748 22.5L106.248 0H133.747L140.747 24L160.747 33L179.747 21L200.247 42.5L187.728 62C200.228 74.5 220.5 103 217.228 160C213.956 217 165.747 268 107.748 268C49.7482 268 14.2488 215.5 5.24754 183C-3.75375 150.5 -1.9517 111.325 16.7475 72ZM25.7468 154C25.7468 210 70.2469 244 111.247 244C152.247 244 195.747 209 195.747 150.5C195.747 92 155.247 41.5 111.247 47C67.2462 52.5 25.7468 98 25.7468 154Z" stroke="black"/>
<path fill-rule="evenodd" clip-rule="evenodd" d="M91 72.5H132L180 198H147L140 178H86L78 198H45L91 72.5ZM128 148H96L112 104L128 148Z" stroke="black"/>
</svg>
