<svg width="846" height="289" viewBox="0 0 846 289" fill="none" xmlns="http://www.w3.org/2000/svg">
<path fill-rule="evenodd" clip-rule="evenodd" d="M306 208.5L341 82H375.5L412 208.5H387L379 181H339L331.5 208.5H306ZM372 158.5H345L358 109.5H359L372 158.5Z" fill="#10334F"/>
<path d="M434 208.5V105.5H403V82H489V105.5H459V208.5H434Z" fill="#10334F"/>
<path d="M571.903 208H597.903L617.403 178.5H618.403L637.403 208H664.903L632.403 161V160L662.903 116H634.403L619.403 142H617.403L600.903 116H574.403L604.403 160V161L571.903 208Z" fill="#10334F"/>
<path d="M673.403 208V116H696.903V148.5H725.903V116H750.403V208H725.903V171H696.903V208H673.403Z" fill="#10334F"/>
<path fill-rule="evenodd" clip-rule="evenodd" d="M761.403 161C761.403 131.5 775.903 116 802.403 116C828.903 116 845.403 128 845.403 161C845.403 194 827.903 208 802.403 208C776.903 208 761.403 190.5 761.403 161ZM786.403 161C786.403 177.5 787.903 188.5 802.403 188.5C816.903 188.5 821.403 184.5 821.403 161C821.403 137.5 814.903 133.5 802.403 133.5C789.903 133.5 786.403 144.5 786.403 161Z" fill="#10334F"/>
<path fill-rule="evenodd" clip-rule="evenodd" d="M512.904 168H569.404V143.5C564.992 124.062 546.404 113 529.904 113C513.404 113 489 122.984 489 158.984C489 194.984 506.904 208 529.904 208C552.904 208 561.657 200.472 567.404 184H543.404C540.686 187.948 539.404 189 529.904 189C520.404 189 512.745 179.197 512.904 168ZM546.403 151H513.403C514.84 138.152 516.404 132 529.904 132C543.404 132 545.1 141.268 546.403 151Z" fill="#10334F"/>
<path d="M345.42 237.659L345.136 247.091H340.455V241.591H338.818V237.659H345.42ZM323 241.591V218.318H327.727V237.636H337.409V218.318H342.193V241.591H323Z" fill="#373C40"/>
<path d="M348.406 241.591V218.318H364.088V222.375H353.327V227.92H363.281V231.977H353.327V237.534H364.134V241.591H348.406Z" fill="#373C40"/>
<path d="M368 241.591V218.318H372.92V227.92H382.909V218.318H387.818V241.591H382.909V231.977H372.92V241.591H368Z" fill="#373C40"/>
<path d="M390.989 222.375V218.318H410.102V222.375H402.977V241.591H398.114V222.375H390.989Z" fill="#373C40"/>
<path d="M413.25 241.591V218.318H422.432C424.197 218.318 425.701 218.655 426.943 219.33C428.186 219.996 429.133 220.924 429.784 222.114C430.443 223.295 430.773 224.659 430.773 226.205C430.773 227.75 430.439 229.114 429.773 230.295C429.106 231.477 428.14 232.398 426.875 233.057C425.617 233.716 424.095 234.045 422.307 234.045H416.455V230.102H421.511C422.458 230.102 423.239 229.939 423.852 229.614C424.473 229.28 424.936 228.822 425.239 228.239C425.549 227.648 425.705 226.97 425.705 226.205C425.705 225.432 425.549 224.758 425.239 224.182C424.936 223.598 424.473 223.148 423.852 222.83C423.231 222.504 422.443 222.341 421.489 222.341H418.17V241.591H413.25Z" fill="#373C40"/>
<path d="M441.375 241.591V218.318H450.557C452.322 218.318 453.826 218.655 455.068 219.33C456.311 219.996 457.258 220.924 457.909 222.114C458.568 223.295 458.898 224.659 458.898 226.205C458.898 227.75 458.564 229.114 457.898 230.295C457.231 231.477 456.265 232.398 455 233.057C453.742 233.716 452.22 234.045 450.432 234.045H444.58V230.102H449.636C450.583 230.102 451.364 229.939 451.977 229.614C452.598 229.28 453.061 228.822 453.364 228.239C453.674 227.648 453.83 226.97 453.83 226.205C453.83 225.432 453.674 224.758 453.364 224.182C453.061 223.598 452.598 223.148 451.977 222.83C451.356 222.504 450.568 222.341 449.614 222.341H446.295V241.591H441.375Z" fill="#373C40"/>
<path d="M462.094 241.591V218.318H477.776V222.375H467.014V227.92H476.969V231.977H467.014V237.534H477.821V241.591H462.094Z" fill="#373C40"/>
<path d="M481.688 218.318H487.756L494.165 233.955H494.438L500.847 218.318H506.915V241.591H502.142V226.443H501.949L495.926 241.477H492.676L486.653 226.386H486.46V241.591H481.688V218.318Z" fill="#373C40"/>
<path d="M532.355 229.955C532.355 232.492 531.874 234.652 530.912 236.432C529.957 238.212 528.654 239.572 527.003 240.511C525.359 241.443 523.51 241.909 521.457 241.909C519.389 241.909 517.533 241.439 515.889 240.5C514.245 239.561 512.946 238.201 511.991 236.42C511.037 234.64 510.56 232.485 510.56 229.955C510.56 227.417 511.037 225.258 511.991 223.477C512.946 221.697 514.245 220.341 515.889 219.409C517.533 218.47 519.389 218 521.457 218C523.51 218 525.359 218.47 527.003 219.409C528.654 220.341 529.957 221.697 530.912 223.477C531.874 225.258 532.355 227.417 532.355 229.955ZM527.366 229.955C527.366 228.311 527.12 226.924 526.628 225.795C526.143 224.667 525.457 223.811 524.571 223.227C523.685 222.644 522.647 222.352 521.457 222.352C520.268 222.352 519.23 222.644 518.344 223.227C517.457 223.811 516.768 224.667 516.276 225.795C515.791 226.924 515.548 228.311 515.548 229.955C515.548 231.598 515.791 232.985 516.276 234.114C516.768 235.242 517.457 236.098 518.344 236.682C519.23 237.265 520.268 237.557 521.457 237.557C522.647 237.557 523.685 237.265 524.571 236.682C525.457 236.098 526.143 235.242 526.628 234.114C527.12 232.985 527.366 231.598 527.366 229.955Z" fill="#373C40"/>
<path d="M536 241.591V218.318H540.92V227.92H550.909V218.318H555.818V241.591H550.909V231.977H540.92V241.591H536Z" fill="#373C40"/>
<path d="M558.989 222.375V218.318H578.102V222.375H570.977V241.591H566.114V222.375H558.989Z" fill="#373C40"/>
<path d="M582.418 241.591H577.145L585.179 218.318H591.52L599.543 241.591H594.27L588.44 223.636H588.259L582.418 241.591ZM582.088 232.443H594.543V236.284H582.088V232.443Z" fill="#373C40"/>
<path d="M625.193 218.318V222.375H614.67V241.591H609.75V218.318H625.193Z" fill="#373C40"/>
<path d="M628.344 218.318H633.253V232.955H633.446L643.503 218.318H647.81V241.591H642.889V226.943H642.719L632.605 241.591H628.344V218.318Z" fill="#373C40"/>
<path d="M650.614 247.205V237.67H652.193C652.731 237.284 653.223 236.739 653.67 236.034C654.117 235.322 654.5 234.341 654.818 233.091C655.136 231.833 655.364 230.189 655.5 228.159L656.159 218.318H671.557V237.67H674.102V247.182H669.375V241.591H655.341V247.205H650.614ZM657.875 237.67H666.83V222.375H660.591L660.227 228.159C660.129 229.697 659.966 231.061 659.739 232.25C659.519 233.439 659.25 234.481 658.932 235.375C658.621 236.261 658.269 237.027 657.875 237.67Z" fill="#373C40"/>
<path d="M677.094 241.591V218.318H686.276C688.041 218.318 689.545 218.655 690.787 219.33C692.029 219.996 692.976 220.924 693.628 222.114C694.287 223.295 694.616 224.659 694.616 226.205C694.616 227.75 694.283 229.114 693.616 230.295C692.95 231.477 691.984 232.398 690.719 233.057C689.461 233.716 687.938 234.045 686.151 234.045H680.298V230.102H685.355C686.302 230.102 687.082 229.939 687.696 229.614C688.317 229.28 688.779 228.822 689.082 228.239C689.393 227.648 689.548 226.97 689.548 226.205C689.548 225.432 689.393 224.758 689.082 224.182C688.779 223.598 688.317 223.148 687.696 222.83C687.075 222.504 686.287 222.341 685.332 222.341H682.014V241.591H677.094Z" fill="#373C40"/>
<path d="M699.136 241.591H693.864L701.898 218.318H708.239L716.261 241.591H710.989L705.159 223.636H704.977L699.136 241.591ZM698.807 232.443H711.261V236.284H698.807V232.443Z" fill="#373C40"/>
<path d="M719.062 241.591V218.318H728.381C730.093 218.318 731.521 218.572 732.665 219.08C733.809 219.587 734.669 220.292 735.244 221.193C735.82 222.087 736.108 223.117 736.108 224.284C736.108 225.193 735.926 225.992 735.562 226.682C735.199 227.364 734.699 227.924 734.062 228.364C733.434 228.795 732.714 229.102 731.903 229.284V229.511C732.79 229.549 733.619 229.799 734.392 230.261C735.172 230.723 735.805 231.371 736.29 232.205C736.775 233.03 737.017 234.015 737.017 235.159C737.017 236.394 736.71 237.496 736.097 238.466C735.491 239.428 734.593 240.189 733.403 240.75C732.214 241.311 730.748 241.591 729.006 241.591H719.062ZM723.983 237.568H727.994C729.366 237.568 730.366 237.307 730.994 236.784C731.623 236.254 731.938 235.549 731.938 234.67C731.938 234.027 731.782 233.458 731.472 232.966C731.161 232.473 730.718 232.087 730.142 231.807C729.574 231.527 728.896 231.386 728.108 231.386H723.983V237.568ZM723.983 228.057H727.631C728.305 228.057 728.903 227.939 729.426 227.705C729.956 227.462 730.373 227.121 730.676 226.682C730.987 226.242 731.142 225.716 731.142 225.102C731.142 224.261 730.843 223.583 730.244 223.068C729.653 222.553 728.812 222.295 727.722 222.295H723.983V228.057Z" fill="#373C40"/>
<path d="M738.957 241.591V237.636L739.616 237.58C740.465 237.511 741.151 237.189 741.673 236.614C742.196 236.03 742.586 235.102 742.844 233.83C743.109 232.549 743.279 230.83 743.355 228.67L743.741 218.318H759.537V241.591H754.753V222.261H748.31L747.946 230.364C747.825 232.97 747.514 235.098 747.014 236.75C746.522 238.402 745.734 239.621 744.651 240.409C743.575 241.197 742.101 241.591 740.23 241.591H738.957Z" fill="#373C40"/>
<path d="M763.594 218.318H768.503V232.955H768.696L778.753 218.318H783.06V241.591H778.139V226.943H777.969L767.855 241.591H763.594V218.318Z" fill="#373C40"/>
<path d="M801.205 241.591L793.727 231.67H792.045V241.591H787.125V218.318H792.045V227.614H793.034L800.761 218.318H806.886L797.807 229.114L807.307 241.591H801.205Z" fill="#373C40"/>
<path d="M809.781 218.318H814.69V232.955H814.884L824.94 218.318H829.247V241.591H824.327V226.943H824.156L814.043 241.591H809.781V218.318Z" fill="#373C40"/>
<path d="M138.864 176.939C123.19 170.029 121.836 164.129 111.832 149.527C108.67 154.078 105.026 158.795 100.645 163.994C87.6787 179.381 64.0475 202.693 31.537 234.73C38.7991 244.629 42.3237 247.971 52.274 256.5C82.8147 223.942 104.493 201.136 117.751 188.902C126.057 180.931 131.72 180.075 138.864 176.939Z" fill="#0E334E"/>
<path d="M289.34 123.992V165.761C289.34 167.266 288.837 168.709 287.833 170.089C286.828 171.468 285.572 172.284 284.065 172.535L249.216 177.803C246.83 184.576 244.381 190.283 241.87 194.924C246.265 201.196 252.984 209.851 262.026 220.889C263.281 222.395 263.909 223.962 263.909 225.593C263.909 227.224 263.344 228.666 262.214 229.921C258.823 234.562 252.607 241.335 243.565 250.241C234.523 259.147 228.621 263.6 225.858 263.6C224.351 263.6 222.719 263.035 220.96 261.906L194.965 241.586C189.44 244.471 183.726 246.854 177.823 248.736C175.814 265.795 173.993 277.46 172.36 283.732C171.481 287.244 169.221 289 165.579 289H123.76C122.002 289 120.464 288.467 119.145 287.401C117.827 286.335 117.105 284.986 116.979 283.355L111.705 248.736C105.551 246.729 99.9 244.408 94.7512 241.774L68.1907 261.906C66.9349 263.035 65.3651 263.6 63.4814 263.6C62.8031 263.6 59.0251 261.377 58.4029 261.172L125.647 194C142.617 181.479 148.347 185.076 156.385 183.527C177.789 183.591 188.797 180.254 202.206 169.836C203.905 168.516 205.642 167.082 207.445 165.527C227.245 146.822 231.62 109.469 220.961 98.5266L199.963 119.787L184.418 135.527L163.894 132.027C154.169 121.014 152.618 114.468 151.379 102.527C151.396 99.788 153.15 96.6987 156.65 92.5437C160.02 88.5425 165.009 83.5529 171.624 76.9361C175.368 73.1924 179.631 68.9278 184.418 64.0266C165.122 60.2097 154.313 60.3877 133.358 70.5267C111.748 83.7548 106.373 97.0143 105.94 118.516C105.836 123.674 106.017 129.307 106.326 135.527C106.294 138.774 103.027 144.287 98.0574 150.813C83.4313 170.02 56.1236 195.177 51.0599 200L47.6581 195.489C44.2674 189.217 41.693 183.008 39.9349 176.862L5.4628 171.782C3.83024 171.531 2.51164 170.747 1.50699 169.43C0.502336 168.113 0 166.639 0 165.008V123.239C0 121.734 0.502336 120.291 1.50699 118.911C2.51164 117.532 3.70465 116.716 5.08605 116.465L40.1233 111.197C41.8814 105.427 44.3302 99.6573 47.4698 93.8874C42.4465 86.7376 35.7279 78.0827 27.3139 67.9225C26.0581 66.4173 25.4302 64.9121 25.4302 63.4069C25.4302 62.1526 25.9954 60.7101 27.1256 59.0794C30.3907 54.5638 36.5756 47.8217 45.6802 38.8532C54.7849 29.8847 60.7186 25.4004 63.4814 25.4004C65.114 25.4004 66.7465 26.0276 68.3791 27.2819L94.3744 47.4141C99.9 44.5291 105.614 42.1458 111.516 40.2643C113.526 23.2053 115.347 11.5399 116.979 5.26823C117.858 1.75608 120.119 0 123.76 0H165.579C167.337 0 168.876 0.533095 170.194 1.59928C171.513 2.66547 172.235 4.01389 172.36 5.64453L177.635 40.2643C183.788 42.2713 189.44 44.5918 194.588 47.2259L221.337 27.0938C222.467 25.9648 223.974 25.4004 225.858 25.4004C227.491 25.4004 229.06 26.0276 230.567 27.2819C246.767 42.2086 257.128 52.8704 261.649 59.2676C262.528 60.271 262.968 61.6508 262.968 63.4069C262.968 64.9121 262.465 66.3546 261.461 67.7344C259.577 70.3685 256.374 74.5392 251.854 80.2464C247.333 85.9537 243.942 90.3752 241.681 93.5111C244.947 99.7828 247.521 105.929 249.405 111.95L283.877 117.218C285.509 117.469 286.828 118.253 287.833 119.57C288.837 120.887 289.34 122.361 289.34 123.992Z" fill="#0E334E"/>
</svg>
