<svg width="852" height="289" viewBox="0 0 852 289" fill="none" xmlns="http://www.w3.org/2000/svg">
<g clip-path="url(#clip0_1688_2)">
<mask id="mask0_1688_2" style="mask-type:luminance" maskUnits="userSpaceOnUse" x="0" y="0" width="852" height="289">
<path d="M852 0H0V289H852V0Z" fill="white"/>
</mask>
<g mask="url(#mask0_1688_2)">
<path fill-rule="evenodd" clip-rule="evenodd" d="M312 167.5L347 41H381.5L418 167.5H393L385 140H345L337.5 167.5H312ZM378 117.5H351L364 68.5H365L378 117.5Z" fill="#10334F"/>
<path d="M440 167.5V64.5H409V41H495V64.5H465V167.5H440Z" fill="#10334F"/>
<path d="M577.903 167H603.903L623.403 137.5H624.403L643.403 167H670.903L638.403 120V119L668.903 75H640.403L625.403 101H623.403L606.903 75H580.403L610.403 119V120L577.903 167Z" fill="#10334F"/>
<path d="M679.403 167V75H702.903V107.5H731.903V75H756.403V167H731.903V130H702.903V167H679.403Z" fill="#10334F"/>
<path fill-rule="evenodd" clip-rule="evenodd" d="M767.403 120C767.403 90.5 781.903 75 808.403 75C834.903 75 851.403 87 851.403 120C851.403 153 833.903 167 808.403 167C782.903 167 767.403 149.5 767.403 120ZM792.403 120C792.403 136.5 793.903 147.5 808.403 147.5C822.903 147.5 827.403 143.5 827.403 120C827.403 96.5 820.903 92.5 808.403 92.5C795.903 92.5 792.403 103.5 792.403 120Z" fill="#10334F"/>
<path fill-rule="evenodd" clip-rule="evenodd" d="M518.904 127H575.404V102.5C570.992 83.0622 552.404 72 535.904 72C519.404 72 495 81.9844 495 117.984C495 153.984 512.904 167 535.904 167C558.904 167 567.657 159.472 573.404 143H549.404C546.686 146.948 545.404 148 535.904 148C526.404 148 518.745 138.197 518.904 127ZM552.403 110H519.403C520.84 97.1519 522.404 91 535.904 91C549.404 91 551.1 100.268 552.403 110Z" fill="#10334F"/>
<path fill-rule="evenodd" clip-rule="evenodd" d="M312 167.5L347 41H381.5L418 167.5H393L385 140H345L337.5 167.5H312ZM378 117.5H351L364 68.5H365L378 117.5Z" stroke="#10334F"/>
<path d="M440 167.5V64.5H409V41H495V64.5H465V167.5H440Z" stroke="#10334F"/>
<path d="M577.903 167H603.903L623.403 137.5H624.403L643.403 167H670.903L638.403 120V119L668.903 75H640.403L625.403 101H623.403L606.903 75H580.403L610.403 119V120L577.903 167Z" stroke="#10334F"/>
<path d="M679.403 167V75H702.903V107.5H731.903V75H756.403V167H731.903V130H702.903V167H679.403Z" stroke="#10334F"/>
<path fill-rule="evenodd" clip-rule="evenodd" d="M767.403 120C767.403 90.5 781.903 75 808.403 75C834.903 75 851.403 87 851.403 120C851.403 153 833.903 167 808.403 167C782.903 167 767.403 149.5 767.403 120ZM792.403 120C792.403 136.5 793.903 147.5 808.403 147.5C822.903 147.5 827.403 143.5 827.403 120C827.403 96.5 820.903 92.5 808.403 92.5C795.903 92.5 792.403 103.5 792.403 120Z" stroke="#10334F"/>
<path fill-rule="evenodd" clip-rule="evenodd" d="M518.904 127H575.404V102.5C570.992 83.0622 552.404 72 535.904 72C519.404 72 495 81.9844 495 117.984C495 153.984 512.904 167 535.904 167C558.904 167 567.657 159.472 573.404 143H549.404C546.686 146.948 545.404 148 535.904 148C526.404 148 518.745 138.197 518.904 127ZM552.403 110H519.403C520.84 97.1519 522.404 91 535.904 91C549.404 91 551.1 100.268 552.403 110Z" stroke="#10334F"/>
<path d="M330.807 182.724V205.997H325.943V186.724H316.534V205.997H311.67V182.724H330.807ZM356.878 194.361C356.878 196.899 356.397 199.058 355.435 200.838C354.48 202.618 353.177 203.978 351.526 204.917C349.882 205.849 348.033 206.315 345.98 206.315C343.912 206.315 342.056 205.845 340.412 204.906C338.768 203.967 337.469 202.607 336.514 200.827C335.56 199.046 335.082 196.891 335.082 194.361C335.082 191.823 335.56 189.664 336.514 187.883C337.469 186.103 338.768 184.747 340.412 183.815C342.056 182.876 343.912 182.406 345.98 182.406C348.033 182.406 349.882 182.876 351.526 183.815C353.177 184.747 354.48 186.103 355.435 187.883C356.397 189.664 356.878 191.823 356.878 194.361ZM351.889 194.361C351.889 192.717 351.643 191.33 351.151 190.202C350.666 189.073 349.98 188.217 349.094 187.633C348.207 187.05 347.17 186.758 345.98 186.758C344.791 186.758 343.753 187.05 342.866 187.633C341.98 188.217 341.291 189.073 340.798 190.202C340.313 191.33 340.071 192.717 340.071 194.361C340.071 196.005 340.313 197.391 340.798 198.52C341.291 199.649 341.98 200.505 342.866 201.088C343.753 201.671 344.791 201.963 345.98 201.963C347.17 201.963 348.207 201.671 349.094 201.088C349.98 200.505 350.666 199.649 351.151 198.52C351.643 197.391 351.889 196.005 351.889 194.361ZM381.057 190.872H376.08C375.989 190.228 375.803 189.656 375.523 189.156C375.242 188.649 374.883 188.217 374.443 187.861C374.004 187.505 373.496 187.232 372.92 187.042C372.352 186.853 371.735 186.758 371.068 186.758C369.864 186.758 368.814 187.058 367.92 187.656C367.027 188.247 366.333 189.111 365.841 190.247C365.348 191.376 365.102 192.747 365.102 194.361C365.102 196.02 365.348 197.414 365.841 198.542C366.341 199.671 367.038 200.524 367.932 201.099C368.826 201.675 369.86 201.963 371.034 201.963C371.693 201.963 372.303 201.876 372.864 201.702C373.432 201.527 373.936 201.274 374.375 200.94C374.814 200.599 375.178 200.186 375.466 199.702C375.761 199.217 375.966 198.664 376.08 198.042L381.057 198.065C380.928 199.133 380.606 200.164 380.091 201.156C379.583 202.141 378.898 203.024 378.034 203.804C377.178 204.577 376.155 205.19 374.966 205.645C373.784 206.092 372.447 206.315 370.955 206.315C368.879 206.315 367.023 205.845 365.386 204.906C363.758 203.967 362.47 202.607 361.523 200.827C360.583 199.046 360.114 196.891 360.114 194.361C360.114 191.823 360.591 189.664 361.545 187.883C362.5 186.103 363.795 184.747 365.432 183.815C367.068 182.876 368.909 182.406 370.955 182.406C372.303 182.406 373.553 182.595 374.705 182.974C375.864 183.353 376.89 183.906 377.784 184.633C378.678 185.353 379.405 186.236 379.966 187.281C380.534 188.327 380.898 189.524 381.057 190.872ZM383.699 186.781V182.724H402.812V186.781H395.688V205.997H390.824V186.781H383.699ZM407.128 205.997H401.855L409.889 182.724H416.23L424.253 205.997H418.98L413.151 188.042H412.969L407.128 205.997ZM406.798 196.849H419.253V200.69H406.798V196.849ZM427.054 205.997V182.724H436.372C438.084 182.724 439.512 182.978 440.656 183.486C441.8 183.993 442.66 184.698 443.236 185.599C443.812 186.493 444.099 187.524 444.099 188.69C444.099 189.599 443.918 190.399 443.554 191.088C443.19 191.77 442.69 192.33 442.054 192.77C441.425 193.202 440.705 193.508 439.895 193.69V193.917C440.781 193.955 441.611 194.205 442.384 194.667C443.164 195.13 443.796 195.777 444.281 196.611C444.766 197.436 445.009 198.421 445.009 199.565C445.009 200.8 444.702 201.902 444.088 202.872C443.482 203.834 442.584 204.595 441.395 205.156C440.205 205.717 438.74 205.997 436.997 205.997H427.054ZM431.974 201.974H435.986C437.357 201.974 438.357 201.713 438.986 201.19C439.615 200.66 439.929 199.955 439.929 199.077C439.929 198.433 439.774 197.864 439.463 197.372C439.152 196.88 438.709 196.493 438.134 196.213C437.565 195.933 436.887 195.792 436.099 195.792H431.974V201.974ZM431.974 192.463H435.622C436.296 192.463 436.895 192.345 437.418 192.111C437.948 191.868 438.365 191.527 438.668 191.088C438.978 190.649 439.134 190.122 439.134 189.508C439.134 188.667 438.834 187.989 438.236 187.474C437.645 186.959 436.804 186.702 435.713 186.702H431.974V192.463ZM462.29 205.997L454.812 196.077H453.131V205.997H448.21V182.724H453.131V192.02H454.119L461.847 182.724H467.972L458.892 193.52L468.392 205.997H462.29ZM474.878 205.997H469.605L477.639 182.724H483.98L492.003 205.997H486.73L480.901 188.042H480.719L474.878 205.997ZM474.548 196.849H487.003V200.69H474.548V196.849ZM502.21 182.724H507.119V197.361H507.312L517.369 182.724H521.676V205.997H516.756V191.349H516.585L506.472 205.997H502.21V182.724ZM525.741 205.997V182.724H530.662V192.327H540.651V182.724H545.56V205.997H540.651V196.383H530.662V205.997H525.741ZM570.151 190.872H565.173C565.082 190.228 564.897 189.656 564.616 189.156C564.336 188.649 563.976 188.217 563.537 187.861C563.098 187.505 562.59 187.232 562.014 187.042C561.446 186.853 560.829 186.758 560.162 186.758C558.957 186.758 557.908 187.058 557.014 187.656C556.12 188.247 555.427 189.111 554.935 190.247C554.442 191.376 554.196 192.747 554.196 194.361C554.196 196.02 554.442 197.414 554.935 198.542C555.435 199.671 556.132 200.524 557.026 201.099C557.92 201.675 558.954 201.963 560.128 201.963C560.787 201.963 561.397 201.876 561.957 201.702C562.526 201.527 563.029 201.274 563.469 200.94C563.908 200.599 564.272 200.186 564.56 199.702C564.855 199.217 565.06 198.664 565.173 198.042L570.151 198.065C570.022 199.133 569.7 200.164 569.185 201.156C568.677 202.141 567.991 203.024 567.128 203.804C566.272 204.577 565.249 205.19 564.06 205.645C562.878 206.092 561.541 206.315 560.048 206.315C557.973 206.315 556.116 205.845 554.48 204.906C552.851 203.967 551.563 202.607 550.616 200.827C549.677 199.046 549.207 196.891 549.207 194.361C549.207 191.823 549.685 189.664 550.639 187.883C551.594 186.103 552.889 184.747 554.526 183.815C556.162 182.876 558.003 182.406 560.048 182.406C561.397 182.406 562.647 182.595 563.798 182.974C564.957 183.353 565.984 183.906 566.878 184.633C567.772 185.353 568.499 186.236 569.06 187.281C569.628 188.327 569.991 189.524 570.151 190.872ZM572.793 186.781V182.724H591.906V186.781H584.781V205.997H579.918V186.781H572.793ZM595.054 205.997V182.724H604.236C606.001 182.724 607.505 183.061 608.747 183.736C609.99 184.402 610.937 185.33 611.588 186.52C612.247 187.702 612.577 189.065 612.577 190.611C612.577 192.156 612.243 193.52 611.577 194.702C610.91 195.883 609.944 196.804 608.679 197.463C607.421 198.122 605.899 198.452 604.111 198.452H598.259V194.508H603.315C604.262 194.508 605.043 194.345 605.656 194.02C606.277 193.686 606.74 193.228 607.043 192.645C607.353 192.054 607.509 191.376 607.509 190.611C607.509 189.838 607.353 189.164 607.043 188.588C606.74 188.005 606.277 187.554 605.656 187.236C605.035 186.91 604.247 186.747 603.293 186.747H599.974V205.997H595.054ZM618.284 206.315V202.315H619.545C620.174 202.315 620.682 202.239 621.068 202.088C621.455 201.929 621.761 201.698 621.989 201.395C622.223 201.084 622.42 200.698 622.58 200.236L622.864 199.474L614.409 182.724H619.5L624.977 194.179L629.557 182.724H634.58L626.557 201.429C626.17 202.292 625.712 203.095 625.182 203.838C624.659 204.58 623.989 205.179 623.17 205.633C622.352 206.088 621.307 206.315 620.034 206.315H618.284ZM637.241 182.724H643.31L649.719 198.361H649.991L656.401 182.724H662.469V205.997H657.696V190.849H657.503L651.48 205.883H648.23L642.207 190.792H642.014V205.997H637.241V182.724ZM666.523 205.997V182.724H682.205V186.781H671.443V192.327H681.398V196.383H671.443V201.94H682.25V205.997H666.523ZM686.116 205.997V182.724H691.037V192.327H701.026V182.724H705.935V205.997H701.026V196.383H691.037V205.997H686.116ZM709.105 186.781V182.724H728.219V186.781H721.094V205.997H716.23V186.781H709.105ZM732.534 205.997H727.261L735.295 182.724H741.636L749.659 205.997H744.386L738.557 188.042H738.375L732.534 205.997ZM732.205 196.849H744.659V200.69H732.205V196.849ZM311.023 221.724H315.932V236.361H316.125L326.182 221.724H330.489V244.997H325.568V230.349H325.398L315.284 244.997H311.023V221.724ZM363.347 233.361C363.347 235.899 362.866 238.058 361.903 239.838C360.949 241.618 359.646 242.978 357.994 243.917C356.35 244.849 354.502 245.315 352.449 245.315C350.381 245.315 348.525 244.845 346.881 243.906C345.237 242.967 343.938 241.607 342.983 239.827C342.028 238.046 341.551 235.891 341.551 233.361C341.551 230.823 342.028 228.664 342.983 226.883C343.938 225.103 345.237 223.747 346.881 222.815C348.525 221.876 350.381 221.406 352.449 221.406C354.502 221.406 356.35 221.876 357.994 222.815C359.646 223.747 360.949 225.103 361.903 226.883C362.866 228.664 363.347 230.823 363.347 233.361ZM358.358 233.361C358.358 231.717 358.112 230.33 357.619 229.202C357.134 228.073 356.449 227.217 355.562 226.633C354.676 226.05 353.638 225.758 352.449 225.758C351.259 225.758 350.222 226.05 349.335 226.633C348.449 227.217 347.759 228.073 347.267 229.202C346.782 230.33 346.54 231.717 346.54 233.361C346.54 235.005 346.782 236.391 347.267 237.52C347.759 238.649 348.449 239.505 349.335 240.088C350.222 240.671 351.259 240.963 352.449 240.963C353.638 240.963 354.676 240.671 355.562 240.088C356.449 239.505 357.134 238.649 357.619 237.52C358.112 236.391 358.358 235.005 358.358 233.361ZM366.991 244.997V221.724H382.435V225.781H371.912V230.327H375.696C377.537 230.327 379.124 230.626 380.457 231.224C381.798 231.815 382.832 232.652 383.56 233.736C384.287 234.819 384.651 236.095 384.651 237.565C384.651 239.027 384.287 240.319 383.56 241.44C382.832 242.554 381.798 243.425 380.457 244.054C379.124 244.683 377.537 244.997 375.696 244.997H366.991ZM371.912 241.042H375.696C376.575 241.042 377.317 240.883 377.923 240.565C378.529 240.239 378.988 239.811 379.298 239.281C379.616 238.743 379.776 238.156 379.776 237.52C379.776 236.595 379.423 235.815 378.719 235.179C378.022 234.535 377.014 234.213 375.696 234.213H371.912V241.042ZM409.222 233.361C409.222 235.899 408.741 238.058 407.778 239.838C406.824 241.618 405.521 242.978 403.869 243.917C402.225 244.849 400.377 245.315 398.324 245.315C396.256 245.315 394.4 244.845 392.756 243.906C391.112 242.967 389.813 241.607 388.858 239.827C387.903 238.046 387.426 235.891 387.426 233.361C387.426 230.823 387.903 228.664 388.858 226.883C389.813 225.103 391.112 223.747 392.756 222.815C394.4 221.876 396.256 221.406 398.324 221.406C400.377 221.406 402.225 221.876 403.869 222.815C405.521 223.747 406.824 225.103 407.778 226.883C408.741 228.664 409.222 230.823 409.222 233.361ZM404.233 233.361C404.233 231.717 403.987 230.33 403.494 229.202C403.009 228.073 402.324 227.217 401.438 226.633C400.551 226.05 399.513 225.758 398.324 225.758C397.134 225.758 396.097 226.05 395.21 226.633C394.324 227.217 393.634 228.073 393.142 229.202C392.657 230.33 392.415 231.717 392.415 233.361C392.415 235.005 392.657 236.391 393.142 237.52C393.634 238.649 394.324 239.505 395.21 240.088C396.097 240.671 397.134 240.963 398.324 240.963C399.513 240.963 400.551 240.671 401.438 240.088C402.324 239.505 403.009 238.649 403.494 237.52C403.987 236.391 404.233 235.005 404.233 233.361ZM412.866 244.997V221.724H422.048C423.813 221.724 425.317 222.061 426.56 222.736C427.802 223.402 428.749 224.33 429.401 225.52C430.06 226.702 430.389 228.065 430.389 229.611C430.389 231.156 430.056 232.52 429.389 233.702C428.723 234.883 427.757 235.804 426.491 236.463C425.234 237.122 423.711 237.452 421.923 237.452H416.071V233.508H421.128C422.075 233.508 422.855 233.345 423.469 233.02C424.09 232.686 424.552 232.228 424.855 231.645C425.166 231.054 425.321 230.376 425.321 229.611C425.321 228.838 425.166 228.164 424.855 227.588C424.552 227.005 424.09 226.554 423.469 226.236C422.848 225.91 422.06 225.747 421.105 225.747H417.787V244.997H412.866ZM436.097 245.315V241.315H437.358C437.987 241.315 438.494 241.239 438.881 241.088C439.267 240.929 439.574 240.698 439.801 240.395C440.036 240.084 440.233 239.698 440.392 239.236L440.676 238.474L432.222 221.724H437.312L442.79 233.179L447.369 221.724H452.392L444.369 240.429C443.983 241.292 443.525 242.095 442.994 242.838C442.472 243.58 441.801 244.179 440.983 244.633C440.165 245.088 439.119 245.315 437.847 245.315H436.097ZM453.793 250.611V241.077H455.372C455.91 240.69 456.402 240.145 456.849 239.44C457.296 238.728 457.679 237.747 457.997 236.497C458.315 235.239 458.543 233.595 458.679 231.565L459.338 221.724H474.736V241.077H477.281V250.588H472.554V244.997H458.52V250.611H453.793ZM461.054 241.077H470.009V225.781H463.77L463.406 231.565C463.308 233.103 463.145 234.467 462.918 235.656C462.698 236.845 462.429 237.887 462.111 238.781C461.8 239.667 461.448 240.433 461.054 241.077ZM501.659 233.361C501.659 235.899 501.178 238.058 500.216 239.838C499.261 241.618 497.958 242.978 496.307 243.917C494.663 244.849 492.814 245.315 490.761 245.315C488.693 245.315 486.837 244.845 485.193 243.906C483.549 242.967 482.25 241.607 481.295 239.827C480.341 238.046 479.864 235.891 479.864 233.361C479.864 230.823 480.341 228.664 481.295 226.883C482.25 225.103 483.549 223.747 485.193 222.815C486.837 221.876 488.693 221.406 490.761 221.406C492.814 221.406 494.663 221.876 496.307 222.815C497.958 223.747 499.261 225.103 500.216 226.883C501.178 228.664 501.659 230.823 501.659 233.361ZM496.67 233.361C496.67 231.717 496.424 230.33 495.932 229.202C495.447 228.073 494.761 227.217 493.875 226.633C492.989 226.05 491.951 225.758 490.761 225.758C489.572 225.758 488.534 226.05 487.648 226.633C486.761 227.217 486.072 228.073 485.58 229.202C485.095 230.33 484.852 231.717 484.852 233.361C484.852 235.005 485.095 236.391 485.58 237.52C486.072 238.649 486.761 239.505 487.648 240.088C488.534 240.671 489.572 240.963 490.761 240.963C491.951 240.963 492.989 240.671 493.875 240.088C494.761 239.505 495.447 238.649 495.932 237.52C496.424 236.391 496.67 235.005 496.67 233.361ZM505.304 244.997V221.724H514.622C516.334 221.724 517.762 221.978 518.906 222.486C520.05 222.993 520.91 223.698 521.486 224.599C522.062 225.493 522.349 226.524 522.349 227.69C522.349 228.599 522.168 229.399 521.804 230.088C521.44 230.77 520.94 231.33 520.304 231.77C519.675 232.202 518.955 232.508 518.145 232.69V232.917C519.031 232.955 519.861 233.205 520.634 233.667C521.414 234.13 522.046 234.777 522.531 235.611C523.016 236.436 523.259 237.421 523.259 238.565C523.259 239.8 522.952 240.902 522.338 241.872C521.732 242.834 520.834 243.595 519.645 244.156C518.455 244.717 516.99 244.997 515.247 244.997H505.304ZM510.224 240.974H514.236C515.607 240.974 516.607 240.713 517.236 240.19C517.865 239.66 518.179 238.955 518.179 238.077C518.179 237.433 518.024 236.864 517.713 236.372C517.402 235.88 516.959 235.493 516.384 235.213C515.815 234.933 515.137 234.792 514.349 234.792H510.224V240.974ZM510.224 231.463H513.872C514.546 231.463 515.145 231.345 515.668 231.111C516.198 230.868 516.615 230.527 516.918 230.088C517.228 229.649 517.384 229.122 517.384 228.508C517.384 227.667 517.084 226.989 516.486 226.474C515.895 225.959 515.054 225.702 513.963 225.702H510.224V231.463ZM530.472 244.997H525.199L533.233 221.724H539.574L547.597 244.997H542.324L536.494 227.042H536.312L530.472 244.997ZM530.142 235.849H542.597V239.69H530.142V235.849ZM550.398 244.997V221.724H555.318V231.327H565.307V221.724H570.216V244.997H565.307V235.383H555.318V244.997H550.398ZM574.273 221.724H579.182V236.361H579.375L589.432 221.724H593.739V244.997H588.818V230.349H588.648L578.534 244.997H574.273V221.724ZM615.668 244.997H610.759V225.747H607.44C606.493 225.747 605.705 225.887 605.077 226.167C604.455 226.44 603.99 226.842 603.679 227.372C603.368 227.902 603.213 228.554 603.213 229.327C603.213 230.092 603.368 230.732 603.679 231.247C603.99 231.762 604.455 232.149 605.077 232.406C605.698 232.664 606.478 232.792 607.418 232.792H612.759V236.747H606.622C604.842 236.747 603.319 236.452 602.054 235.861C600.789 235.27 599.823 234.421 599.156 233.315C598.49 232.202 598.156 230.872 598.156 229.327C598.156 227.789 598.482 226.452 599.134 225.315C599.793 224.171 600.743 223.289 601.986 222.667C603.236 222.039 604.74 221.724 606.497 221.724H615.668V244.997ZM603.111 234.406H608.418L602.759 244.997H597.327L603.111 234.406Z" fill="#373C40"/>
<path d="M138.864 176.935C123.19 170.025 121.836 164.125 111.832 149.523C108.67 154.074 105.026 158.791 100.645 163.99C87.6788 179.377 64.0476 202.689 31.5371 234.726C38.7992 244.625 42.3238 247.967 52.2741 256.496C82.8148 223.938 104.493 201.132 117.751 188.898C126.057 180.927 131.72 180.071 138.864 176.935Z" fill="#0E334E"/>
<path d="M289.34 123.992V165.761C289.34 167.266 288.837 168.709 287.833 170.089C286.828 171.468 285.572 172.284 284.065 172.535L249.216 177.803C246.83 184.576 244.381 190.283 241.87 194.924C246.265 201.196 252.984 209.851 262.026 220.889C263.281 222.395 263.909 223.962 263.909 225.593C263.909 227.224 263.344 228.666 262.214 229.921C258.823 234.562 252.607 241.335 243.565 250.241C234.523 259.147 228.621 263.6 225.858 263.6C224.351 263.6 222.719 263.035 220.96 261.906L194.965 241.586C189.44 244.471 183.726 246.854 177.823 248.736C175.814 265.795 173.993 277.46 172.36 283.732C171.481 287.244 169.221 289 165.579 289H123.76C122.002 289 120.464 288.467 119.145 287.401C117.827 286.335 117.105 284.986 116.979 283.355L111.705 248.736C105.551 246.729 99.9 244.408 94.7512 241.774L68.1907 261.906C66.9349 263.035 65.3651 263.6 63.4814 263.6C62.8031 263.6 59.0251 261.377 58.4029 261.172L125.647 194C142.617 181.479 148.347 185.076 156.385 183.527C177.789 183.591 188.797 180.254 202.206 169.836C203.905 168.516 205.642 167.082 207.445 165.527C227.245 146.822 231.62 109.469 220.961 98.5266L199.963 119.787L184.418 135.527L163.894 132.027C154.169 121.014 152.618 114.468 151.379 102.527C151.396 99.788 153.15 96.6987 156.65 92.5437C160.02 88.5425 165.009 83.5529 171.624 76.9361C175.368 73.1924 179.631 68.9278 184.418 64.0266C165.122 60.2097 154.313 60.3877 133.358 70.5267C111.748 83.7548 106.373 97.0143 105.94 118.516C105.836 123.674 106.017 129.307 106.326 135.527C106.294 138.774 103.027 144.287 98.0574 150.813C83.4313 170.02 56.1236 195.177 51.0599 200L47.6581 195.489C44.2674 189.217 41.693 183.008 39.9349 176.862L5.4628 171.782C3.83024 171.531 2.51164 170.747 1.50699 169.43C0.502336 168.113 0 166.639 0 165.008V123.239C0 121.734 0.502336 120.291 1.50699 118.911C2.51164 117.532 3.70465 116.716 5.08605 116.465L40.1233 111.197C41.8814 105.427 44.3302 99.6573 47.4698 93.8874C42.4465 86.7376 35.7279 78.0827 27.3139 67.9225C26.0581 66.4173 25.4302 64.9121 25.4302 63.4069C25.4302 62.1526 25.9954 60.7101 27.1256 59.0794C30.3907 54.5638 36.5756 47.8217 45.6802 38.8532C54.7849 29.8847 60.7186 25.4004 63.4814 25.4004C65.114 25.4004 66.7465 26.0276 68.3791 27.2819L94.3744 47.4141C99.9 44.5291 105.614 42.1458 111.516 40.2643C113.526 23.2053 115.347 11.5399 116.979 5.26823C117.858 1.75608 120.119 0 123.76 0H165.579C167.337 0 168.876 0.533095 170.194 1.59928C171.513 2.66547 172.235 4.01389 172.36 5.64453L177.635 40.2643C183.788 42.2713 189.44 44.5918 194.588 47.2259L221.337 27.0938C222.467 25.9648 223.974 25.4004 225.858 25.4004C227.491 25.4004 229.06 26.0276 230.567 27.2819C246.767 42.2086 257.128 52.8704 261.649 59.2676C262.528 60.2711 262.968 61.6508 262.968 63.4069C262.968 64.9121 262.465 66.3546 261.461 67.7344C259.577 70.3685 256.374 74.5392 251.854 80.2464C247.333 85.9537 243.942 90.3752 241.681 93.5111C244.947 99.7828 247.521 105.929 249.405 111.95L283.877 117.218C285.509 117.469 286.828 118.253 287.833 119.57C288.837 120.887 289.34 122.361 289.34 123.992Z" fill="#0E334E"/>
</g>
</g>
<defs>
<clipPath id="clip0_1688_2">
<rect width="852" height="289" fill="white"/>
</clipPath>
</defs>
</svg>
