<svg width="289" height="289" viewBox="0 0 289 289" fill="none" xmlns="http://www.w3.org/2000/svg">
<path d="M138.701 176.939C123.046 170.029 121.693 164.129 111.701 149.527C108.543 154.078 104.903 158.795 100.527 163.994C87.5758 179.381 63.9723 202.693 31.5 234.73C38.7536 244.629 42.274 247.971 52.2127 256.5C82.7175 223.942 104.37 201.136 117.613 188.902C125.909 180.931 131.566 180.075 138.701 176.939Z" fill="#0E334E"/>
<path d="M289 123.992V165.761C289 167.266 288.498 168.709 287.495 170.089C286.491 171.468 285.237 172.284 283.732 172.535L248.924 177.803C246.541 184.576 244.095 190.283 241.586 194.924C245.976 201.196 252.687 209.851 261.718 220.889C262.972 222.395 263.6 223.962 263.6 225.593C263.6 227.224 263.035 228.666 261.906 229.921C258.52 234.562 252.311 241.335 243.279 250.241C234.248 259.147 228.353 263.6 225.593 263.6C224.088 263.6 222.457 263.035 220.701 261.906L194.736 241.586C189.217 244.471 183.51 246.854 177.615 248.736C175.608 265.795 173.789 277.46 172.158 283.732C171.28 287.244 169.022 289 165.385 289H123.615C121.859 289 120.323 288.467 119.006 287.401C117.688 286.335 116.967 284.986 116.842 283.355L111.574 248.736C105.427 246.729 99.7828 244.408 94.64 241.774L68.1107 261.906C66.8563 263.035 65.2884 263.6 63.4069 263.6C62.7294 263.6 58.9558 261.377 58.3344 261.172L125.5 194C142.45 181.479 148.173 185.076 156.201 183.527C177.58 183.591 188.575 180.254 201.968 169.836C203.665 168.516 205.401 167.082 207.201 165.527C226.978 146.822 231.348 109.469 220.701 98.5266L199.728 119.787L184.201 135.527L163.701 132.027C153.988 121.014 152.439 114.468 151.201 102.527C151.219 99.788 152.971 96.6987 156.466 92.5437C159.832 88.5425 164.815 83.5529 171.423 76.9361C175.162 73.1924 179.421 68.9278 184.201 64.0266C164.928 60.2097 154.132 60.3877 133.201 70.5267C111.617 83.7548 106.248 97.0143 105.816 118.516C105.712 123.674 105.892 129.307 106.201 135.527C106.169 138.774 102.906 144.287 97.9423 150.813C83.3334 170.02 56.0578 195.177 51 200L47.6022 195.489C44.2155 189.217 41.6441 183.008 39.888 176.862L5.45639 171.782C3.82575 171.531 2.50869 170.747 1.50522 169.43C0.501746 168.113 0 166.639 0 165.008V123.239C0 121.734 0.501746 120.291 1.50522 118.911C2.50869 117.532 3.7003 116.716 5.08008 116.465L40.0762 111.197C41.8322 105.427 44.2782 99.6573 47.4141 93.8874C42.3967 86.7376 35.686 78.0827 27.2819 67.9225C26.0275 66.4173 25.4004 64.9121 25.4004 63.4069C25.4004 62.1526 25.9648 60.7101 27.0938 59.0794C30.355 54.5638 36.5326 47.8217 45.6266 38.8532C54.7206 29.8847 60.6473 25.4004 63.4069 25.4004C65.0375 25.4004 66.6682 26.0276 68.2988 27.2819L94.2637 47.4141C99.7828 44.5291 105.49 42.1458 111.385 40.2643C113.392 23.2053 115.211 11.5399 116.842 5.26823C117.72 1.75608 119.978 0 123.615 0H165.385C167.141 0 168.677 0.533095 169.994 1.59928C171.312 2.66547 172.033 4.01389 172.158 5.64453L177.426 40.2643C183.573 42.2713 189.217 44.5918 194.36 47.2259L221.077 27.0938C222.206 25.9648 223.712 25.4004 225.593 25.4004C227.224 25.4004 228.792 26.0276 230.297 27.2819C246.478 42.2086 256.826 52.8704 261.342 59.2676C262.22 60.271 262.659 61.6508 262.659 63.4069C262.659 64.9121 262.157 66.3546 261.154 67.7344C259.272 70.3685 256.074 74.5392 251.558 80.2464C247.042 85.9537 243.656 90.3752 241.398 93.5111C244.659 99.7828 247.23 105.929 249.112 111.95L283.544 117.218C285.174 117.469 286.491 118.253 287.495 119.57C288.498 120.887 289 122.361 289 123.992Z" fill="#0E334E"/>
</svg>
