<svg width="852" height="289" viewBox="0 0 852 289" fill="none" xmlns="http://www.w3.org/2000/svg">
<g clip-path="url(#clip0_1671_10)">
<path fill-rule="evenodd" clip-rule="evenodd" d="M313 208.5L348 82H382.5L419 208.5H394L386 181H346L338.5 208.5H313ZM379 158.5H352L365 109.5H366L379 158.5Z" fill="#10334F"/>
<path d="M441 208.5V105.5H410V82H496V105.5H466V208.5H441Z" fill="#10334F"/>
<path d="M578.903 208H604.903L624.403 178.5H625.403L644.403 208H671.903L639.403 161V160L669.903 116H641.403L626.403 142H624.403L607.903 116H581.403L611.403 160V161L578.903 208Z" fill="#10334F"/>
<path d="M680.403 208V116H703.903V148.5H732.903V116H757.403V208H732.903V171H703.903V208H680.403Z" fill="#10334F"/>
<path fill-rule="evenodd" clip-rule="evenodd" d="M768.403 161C768.403 131.5 782.903 116 809.403 116C835.903 116 852.403 128 852.403 161C852.403 194 834.903 208 809.403 208C783.903 208 768.403 190.5 768.403 161ZM793.403 161C793.403 177.5 794.903 188.5 809.403 188.5C823.903 188.5 828.403 184.5 828.403 161C828.403 137.5 821.903 133.5 809.403 133.5C796.903 133.5 793.403 144.5 793.403 161Z" fill="#10334F"/>
<path fill-rule="evenodd" clip-rule="evenodd" d="M519.904 168H576.404V143.5C571.992 124.062 553.404 113 536.904 113C520.404 113 496 122.984 496 158.984C496 194.984 513.904 208 536.904 208C559.904 208 568.657 200.472 574.404 184H550.404C547.686 187.948 546.404 189 536.904 189C527.404 189 519.745 179.197 519.904 168ZM553.403 151H520.403C521.84 138.152 523.404 132 536.904 132C550.404 132 552.1 141.268 553.403 151Z" fill="#10334F"/>
<path fill-rule="evenodd" clip-rule="evenodd" d="M313 208.5L348 82H382.5L419 208.5H394L386 181H346L338.5 208.5H313ZM379 158.5H352L365 109.5H366L379 158.5Z" stroke="#10334F"/>
<path d="M441 208.5V105.5H410V82H496V105.5H466V208.5H441Z" stroke="#10334F"/>
<path d="M578.903 208H604.903L624.403 178.5H625.403L644.403 208H671.903L639.403 161V160L669.903 116H641.403L626.403 142H624.403L607.903 116H581.403L611.403 160V161L578.903 208Z" stroke="#10334F"/>
<path d="M680.403 208V116H703.903V148.5H732.903V116H757.403V208H732.903V171H703.903V208H680.403Z" stroke="#10334F"/>
<path fill-rule="evenodd" clip-rule="evenodd" d="M768.403 161C768.403 131.5 782.903 116 809.403 116C835.903 116 852.403 128 852.403 161C852.403 194 834.903 208 809.403 208C783.903 208 768.403 190.5 768.403 161ZM793.403 161C793.403 177.5 794.903 188.5 809.403 188.5C823.903 188.5 828.403 184.5 828.403 161C828.403 137.5 821.903 133.5 809.403 133.5C796.903 133.5 793.403 144.5 793.403 161Z" stroke="#10334F"/>
<path fill-rule="evenodd" clip-rule="evenodd" d="M519.904 168H576.404V143.5C571.992 124.062 553.404 113 536.904 113C520.404 113 496 122.984 496 158.984C496 194.984 513.904 208 536.904 208C559.904 208 568.657 200.472 574.404 184H550.404C547.686 187.948 546.404 189 536.904 189C527.404 189 519.745 179.197 519.904 168ZM553.403 151H520.403C521.84 138.152 523.404 132 536.904 132C550.404 132 552.1 141.268 553.403 151Z" stroke="#10334F"/>
<path d="M138.864 176.939C123.19 170.029 121.836 164.129 111.832 149.527C108.67 154.078 105.026 158.795 100.645 163.994C87.6787 179.381 64.0475 202.693 31.537 234.73C38.7991 244.629 42.3237 247.971 52.274 256.5C82.8147 223.942 104.493 201.136 117.751 188.902C126.057 180.931 131.72 180.075 138.864 176.939Z" fill="#0E334E"/>
<path d="M289.34 123.992V165.761C289.34 167.266 288.837 168.709 287.833 170.089C286.828 171.468 285.572 172.284 284.065 172.535L249.216 177.803C246.83 184.576 244.381 190.283 241.87 194.924C246.265 201.196 252.984 209.851 262.026 220.889C263.281 222.395 263.909 223.962 263.909 225.593C263.909 227.224 263.344 228.666 262.214 229.921C258.823 234.562 252.607 241.335 243.565 250.241C234.523 259.147 228.621 263.6 225.858 263.6C224.351 263.6 222.719 263.035 220.96 261.906L194.965 241.586C189.44 244.471 183.726 246.854 177.823 248.736C175.814 265.795 173.993 277.46 172.36 283.732C171.481 287.244 169.221 289 165.579 289H123.76C122.002 289 120.464 288.467 119.145 287.401C117.827 286.335 117.105 284.986 116.979 283.355L111.705 248.736C105.551 246.729 99.9 244.408 94.7512 241.774L68.1907 261.906C66.9349 263.035 65.3651 263.6 63.4814 263.6C62.8031 263.6 59.0251 261.377 58.4029 261.172L125.647 194C142.617 181.479 148.347 185.076 156.385 183.527C177.789 183.591 188.797 180.254 202.206 169.836C203.905 168.516 205.642 167.082 207.445 165.527C227.245 146.822 231.62 109.469 220.961 98.5266L199.963 119.787L184.418 135.527L163.894 132.027C154.169 121.014 152.618 114.468 151.379 102.527C151.396 99.788 153.15 96.6987 156.65 92.5437C160.02 88.5425 165.009 83.5529 171.624 76.9361C175.368 73.1924 179.631 68.9278 184.418 64.0266C165.122 60.2097 154.313 60.3877 133.358 70.5267C111.748 83.7548 106.373 97.0143 105.94 118.516C105.836 123.674 106.017 129.307 106.326 135.527C106.294 138.774 103.027 144.287 98.0574 150.813C83.4313 170.02 56.1236 195.177 51.0599 200L47.6581 195.489C44.2674 189.217 41.693 183.008 39.9349 176.862L5.4628 171.782C3.83024 171.531 2.51164 170.747 1.50699 169.43C0.502336 168.113 0 166.639 0 165.008V123.239C0 121.734 0.502336 120.291 1.50699 118.911C2.51164 117.532 3.70465 116.716 5.08605 116.465L40.1233 111.197C41.8814 105.427 44.3302 99.6573 47.4698 93.8874C42.4465 86.7376 35.7279 78.0827 27.3139 67.9225C26.0581 66.4173 25.4302 64.9121 25.4302 63.4069C25.4302 62.1526 25.9954 60.7101 27.1256 59.0794C30.3907 54.5638 36.5756 47.8217 45.6802 38.8532C54.7849 29.8847 60.7186 25.4004 63.4814 25.4004C65.114 25.4004 66.7465 26.0276 68.3791 27.2819L94.3744 47.4141C99.9 44.5291 105.614 42.1458 111.516 40.2643C113.526 23.2053 115.347 11.5399 116.979 5.26823C117.858 1.75608 120.119 0 123.76 0H165.579C167.337 0 168.876 0.533095 170.194 1.59928C171.513 2.66547 172.235 4.01389 172.36 5.64453L177.635 40.2643C183.788 42.2713 189.44 44.5918 194.588 47.2259L221.337 27.0938C222.467 25.9648 223.974 25.4004 225.858 25.4004C227.491 25.4004 229.06 26.0276 230.567 27.2819C246.767 42.2086 257.128 52.8704 261.649 59.2676C262.528 60.271 262.968 61.6508 262.968 63.4069C262.968 64.9121 262.465 66.3546 261.461 67.7344C259.577 70.3685 256.374 74.5392 251.854 80.2464C247.333 85.9537 243.942 90.3752 241.681 93.5111C244.947 99.7828 247.521 105.929 249.405 111.95L283.877 117.218C285.509 117.469 286.828 118.253 287.833 119.57C288.837 120.887 289.34 122.361 289.34 123.992Z" fill="#0E334E"/>
</g>
<defs>
<clipPath id="clip0_1671_10">
<rect width="852" height="289" fill="white"/>
</clipPath>
</defs>
</svg>
